<svg xmlns="http://www.w3.org/2000/svg" viewBox="0 0 1200 620" role="img" aria-labelledby="title desc">
  <title id="title">GTG symbol data core visual</title>
  <desc id="desc">A restrained 2.5D data core using the official GTG symbol silhouette with subtle flow ribbons and activation nodes.</desc>
  <defs>
    <g id="gtg-symbol">
      <path d="M2322.72,2405.45l863.5-349.65c10.04-4.07,16.75-14.85,16.75-26.95v-826.72c0-19.75-17.23-33.56-33.66-26.97l-373.87,149.99c-10.08,4.04-16.82,14.85-16.82,26.97v257.57c0,19.75,17.23,33.56,33.66,26.97l76.32-30.61c16.42-6.59,33.66,7.22,33.66,26.97v191.22c0,12.09-6.7,22.88-16.75,26.95l-302.06,122.31c-16.44,6.66-33.73-7.16-33.73-26.95v-759.13c0-12.09,6.7-22.88,16.75-26.95l599.76-242.85c10.04-4.07,16.75-14.85,16.75-26.95v-257.51c0-19.79-17.29-33.6-33.73-26.95l-863.5,349.65c-10.04,4.07-16.75,14.85-16.75,26.95v1395.68c0,19.79,17.29,33.6,33.73,26.95Z"/>
      <path d="M1724.58,1524.93l-373.87-152.54c-16.45-6.71-33.78,7.11-33.78,26.92v257.45c0,12.07,6.68,22.84,16.69,26.92l110.47,45.08c10.01,4.09,16.69,14.86,16.69,26.92v188.42c0,19.86-17.41,33.68-33.88,26.89l-302.29-124.85c-9.97-4.12-16.6-14.86-16.6-26.89v-759c0-19.86,17.41-33.68,33.88-26.89l565.5,233.56c16.46,6.8,33.88-7.02,33.88-26.89v-257.37c0-12.03-6.63-22.77-16.6-26.89l-863.5-356.64c-16.46-6.8-33.88,7.02-33.88,26.89v1395.54c0,12.03,6.63,22.77,16.6,26.89l863.5,356.64c16.46,6.8,33.88-7.02,33.88-26.89v-826.37c0-12.07-6.68-22.84-16.69-26.92Z"/>
      <path d="M3110.98,405.33l-416.25-85.06c-4.39-.9-8.9-.46-13.09,1.27l-657.89,270.98c-5.57,2.29-11.67,2.29-17.24,0l-657.89-270.98c-4.19-1.73-8.71-2.16-13.09-1.27l-416.25,85.06c-25.36,5.18-28.37,45.05-4.16,55.05l959.39,395.94h-2.45v1596.61c0,12.02,6.62,22.76,16.58,26.88l115.12,47.66c5.59,2.31,11.72,2.31,17.31,0l115.12-47.66c9.96-4.12,16.58-14.86,16.58-26.88V877.57c0-12.03,6.64-22.77,16.61-26.89l945.74-390.3c24.22-9.99,21.21-49.87-4.16-55.05Z"/>
    </g>
    <linearGradient id="symbolRed" x1="420" x2="792" y1="94" y2="548" gradientUnits="userSpaceOnUse">
      <stop offset="0" stop-color="#f20f1b"/>
      <stop offset="0.5" stop-color="#e30613"/>
      <stop offset="1" stop-color="#8f0710"/>
    </linearGradient>
    <linearGradient id="warmFlow" x1="120" x2="1080" y1="0" y2="0" gradientUnits="userSpaceOnUse">
      <stop offset="0" stop-color="#f3f1ea" stop-opacity="0"/>
      <stop offset="0.24" stop-color="#b9bab4" stop-opacity="0.2"/>
      <stop offset="0.52" stop-color="#f3f1ea" stop-opacity="0.28"/>
      <stop offset="0.82" stop-color="#858984" stop-opacity="0.18"/>
      <stop offset="1" stop-color="#f3f1ea" stop-opacity="0"/>
    </linearGradient>
    <linearGradient id="redFlow" x1="150" x2="1050" y1="0" y2="0" gradientUnits="userSpaceOnUse">
      <stop offset="0" stop-color="#e30613" stop-opacity="0"/>
      <stop offset="0.4" stop-color="#e30613" stop-opacity="0.1"/>
      <stop offset="0.66" stop-color="#e30613" stop-opacity="0.22"/>
      <stop offset="1" stop-color="#e30613" stop-opacity="0"/>
    </linearGradient>
    <filter id="symbolShadow" x="-30%" y="-30%" width="160%" height="170%">
      <feDropShadow dx="0" dy="34" stdDeviation="30" flood-color="#000000" flood-opacity="0.48"/>
      <feDropShadow dx="0" dy="0" stdDeviation="20" flood-color="#e30613" flood-opacity="0.1"/>
    </filter>
    <filter id="nodeGlow" x="-100%" y="-100%" width="300%" height="300%">
      <feGaussianBlur stdDeviation="7" result="blur"/>
      <feMerge>
        <feMergeNode in="blur"/>
        <feMergeNode in="SourceGraphic"/>
      </feMerge>
    </filter>
  </defs>

  <g fill="none" stroke-linecap="round">
    <path d="M130 178 C294 116 403 143 542 196 C674 247 760 204 1074 128" stroke="url(#warmFlow)" stroke-width="8" opacity="0.52"/>
    <path d="M108 320 C274 288 397 366 548 322 C677 285 801 316 1096 272" stroke="#6f7472" stroke-width="5" opacity="0.22"/>
    <path d="M168 468 C312 406 430 430 556 392 C707 347 816 382 1038 326" stroke="url(#redFlow)" stroke-width="7" opacity="0.44"/>
    <path d="M294 94 C414 152 483 136 602 112 C744 83 832 120 956 82" stroke="#858984" stroke-width="4" opacity="0.16"/>
  </g>

  <use href="#gtg-symbol" fill="#151819" opacity="0.44" filter="url(#symbolShadow)" transform="translate(626 336) scale(.22) translate(-2014.97 -1424.725)"/>
  <use href="#gtg-symbol" fill="#4b0b10" opacity="0.24" transform="translate(613 322) scale(.22) translate(-2014.97 -1424.725)"/>
  <use href="#gtg-symbol" fill="url(#symbolRed)" filter="url(#symbolShadow)" transform="translate(600 310) scale(.22) translate(-2014.97 -1424.725)"/>

  <g filter="url(#nodeGlow)">
    <rect x="326" y="164" width="22" height="22" rx="3" fill="#e30613" opacity="0.68" transform="rotate(45 337 175)"/>
    <rect x="842" y="288" width="18" height="18" rx="3" fill="#e30613" opacity="0.62" transform="rotate(45 851 297)"/>
    <rect x="466" y="424" width="16" height="16" rx="3" fill="#e30613" opacity="0.52" transform="rotate(45 474 432)"/>
    <rect x="878" y="118" width="18" height="18" rx="3" fill="#f3f1ea" opacity="0.2" transform="rotate(45 887 127)"/>
  </g>
</svg>
