<svg xmlns="http://www.w3.org/2000/svg" viewBox="0 0 1440 900" role="img" aria-labelledby="title desc">
  <title id="title">GTG consulting and technical support topology</title>
  <desc id="desc">Diagnostic topology with signal correlation, support action point, and dependency path.</desc>
  <defs>
    <style>
      .bg{fill:#040404}.grid{stroke:#89867f;stroke-opacity:.2}.line{fill:none;stroke:#f4efe4;stroke-opacity:.68;stroke-width:4}.dep{fill:none;stroke:#89867f;stroke-opacity:.5;stroke-width:3;stroke-dasharray:12 12}.red{fill:none;stroke:#f02018;stroke-width:6}.node{fill:#181817;stroke:#f4efe4;stroke-opacity:.72;stroke-width:4}.active{fill:#181817;stroke:#f02018;stroke-width:6}.marker{fill:#181817;stroke:#f4efe4;stroke-opacity:.7;stroke-width:4}.label{fill:#f4efe4;font:700 24px Arial,sans-serif}.small{fill:#89867f;font:700 18px Arial,sans-serif}
    </style>
    <pattern id="grid" width="78" height="78" patternUnits="userSpaceOnUse"><path d="M78 0H0V78" class="grid"/></pattern>
  </defs>
  <rect width="1440" height="900" class="bg"/>
  <rect x="64" y="64" width="1312" height="772" fill="url(#grid)"/>
  <text x="96" y="126" class="label">Consulting &amp; Technical Support topology</text>
  <text x="96" y="160" class="small">Diagnostics, signal correlation, support action, dependency path</text>
  <path d="M250 620C382 260 660 224 792 452S1064 668 1208 312" class="dep"/>
  <path d="M250 620C430 566 496 458 642 454S862 380 1032 438" class="line"/>
  <path d="M642 454C724 454 768 514 842 548S980 552 1084 494" class="red"/>
  <circle cx="250" cy="620" r="30" class="node"/>
  <circle cx="470" cy="512" r="28" class="node"/>
  <circle cx="642" cy="454" r="34" class="active"/>
  <circle cx="842" cy="548" r="30" class="node"/>
  <circle cx="1084" cy="494" r="34" class="active"/>
  <circle cx="1208" cy="312" r="28" class="node"/>
  <path d="M626 304L696 426H556Z" class="marker"/>
  <path d="M626 352V386" stroke="#f02018" stroke-width="8"/>
  <circle cx="626" cy="402" r="6" fill="#f02018"/>
  <path d="M1044 192H1134L1108 222H1018Z" fill="#f02018"/>
  <path d="M1134 192L1170 208L1144 238L1108 222Z" fill="#9e0d0a"/>
  <text x="214" y="680" class="small">signal</text>
  <text x="566" y="276" class="small">diagnose</text>
  <text x="794" y="610" class="small">correlate</text>
  <text x="1034" y="560" class="small">support action</text>
</svg>
