<svg xmlns="http://www.w3.org/2000/svg" viewBox="0 0 1400 640" role="img" aria-label="Procedural training path placeholder">
  <rect width="1400" height="640" fill="#181817"/>
  <path d="M184 420C278 290 392 398 482 274C572 150 704 260 798 160C894 58 1010 182 1126 116" fill="none" stroke="#f4efe4" stroke-opacity=".72" stroke-width="7" stroke-linecap="round"/>
  <path d="M184 486C334 430 416 504 558 428C704 350 828 424 962 332C1048 272 1138 266 1220 280" fill="none" stroke="#89867f" stroke-opacity=".52" stroke-width="5" stroke-linecap="round"/>
  <g fill="#22221f" stroke="#f4efe4" stroke-opacity=".34" stroke-width="3">
    <rect x="140" y="372" width="88" height="88"/><rect x="438" y="230" width="88" height="88"/>
    <rect x="754" y="116" width="88" height="88"/><rect x="1082" y="72" width="88" height="88"/>
  </g>
  <g fill="#f02018">
    <circle cx="184" cy="420" r="12"/><circle cx="482" cy="274" r="12"/><circle cx="798" cy="160" r="12"/><circle cx="1126" cy="116" r="12"/>
  </g>
  <g stroke="#89867f" stroke-opacity=".24">
    <path d="M312 170h194M606 398h250M932 474h260"/>
  </g>
  <text x="92" y="104" fill="#f4efe4" font-family="Arial, sans-serif" font-size="34" font-weight="700">TRAINING &amp; DELIVERY</text>
  <text x="92" y="546" fill="#89867f" font-family="Arial, sans-serif" font-size="22">knowledge map / delivery sequence / learning path</text>
</svg>
