<svg xmlns="http://www.w3.org/2000/svg" viewBox="0 0 1400 640" role="img" aria-label="Procedural streaming signal placeholder">
  <rect width="1400" height="640" fill="#10100f"/>
  <path d="M0 470C250 380 348 480 548 390C746 302 854 380 1056 292C1196 230 1300 238 1400 190V640H0Z" fill="#24231f"/>
  <g fill="none" stroke-linecap="round">
    <path d="M94 170C286 100 366 258 540 190C710 124 820 230 1004 168C1140 122 1240 122 1320 148" stroke="#f4efe4" stroke-opacity=".82" stroke-width="7"/>
    <path d="M86 280C276 212 372 362 558 294C742 226 810 336 1010 276C1144 236 1240 232 1322 268" stroke="#89867f" stroke-opacity=".78" stroke-width="5"/>
    <path d="M92 390C260 342 386 474 580 408C760 348 848 454 1032 388C1160 342 1262 346 1320 390" stroke="#f02018" stroke-width="5"/>
  </g>
  <g fill="#f02018">
    <circle cx="310" cy="122" r="13"/><circle cx="704" cy="126" r="13"/><circle cx="1146" cy="122" r="13"/>
  </g>
  <g fill="#f4efe4" opacity=".84">
    <circle cx="548" cy="390" r="10"/><circle cx="854" cy="380" r="10"/><circle cx="1196" cy="230" r="10"/>
  </g>
  <text x="92" y="104" fill="#f4efe4" font-family="Arial, sans-serif" font-size="34" font-weight="700">DATA STREAMING</text>
  <text x="92" y="546" fill="#89867f" font-family="Arial, sans-serif" font-size="22">flowing lines / event pulses / directional signals</text>
</svg>
