<svg xmlns="http://www.w3.org/2000/svg" viewBox="0 0 1400 640" role="img" aria-label="Procedural support diagnostics placeholder">
  <rect width="1400" height="640" fill="#111110"/>
  <g fill="none" stroke="#89867f" stroke-opacity=".22">
    <path d="M120 180H1280M120 260H1280M120 340H1280M120 420H1280"/>
  </g>
  <path d="M148 388c86-10 110-88 190-80 76 8 82 88 158 90 100 3 102-154 198-154 92 0 104 126 194 126 90 0 110-80 190-80 80 0 98 70 174 70" fill="none" stroke="#f4efe4" stroke-width="7" stroke-linecap="round"/>
  <path d="M148 448c126-34 214-12 292-54 92-50 154-42 230-8 102 46 162 30 238-36 82-72 174-46 344-32" fill="none" stroke="#f02018" stroke-width="5" stroke-linecap="round"/>
  <g fill="#22221f" stroke="#f4efe4" stroke-opacity=".35" stroke-width="3">
    <circle cx="338" cy="308" r="42"/><circle cx="694" cy="244" r="42"/><circle cx="1078" cy="290" r="42"/>
  </g>
  <g fill="#f02018">
    <circle cx="338" cy="308" r="10"/><circle cx="694" cy="244" r="10"/><circle cx="1078" cy="290" r="10"/>
  </g>
  <text x="92" y="104" fill="#f4efe4" font-family="Arial, sans-serif" font-size="34" font-weight="700">TECHNICAL SUPPORT</text>
  <text x="92" y="546" fill="#89867f" font-family="Arial, sans-serif" font-size="22">diagnostics graph / connected support nodes</text>
</svg>
